<?xml version="1.0" encoding="iso-8859-1"?>
<!-- Generator: Adobe Illustrator 19.0.0, SVG Export Plug-In . SVG Version: 6.00 Build 0)  -->
<svg version="1.1" id="Capa_1" xmlns="http://www.w3.org/2000/svg" xmlns:xlink="http://www.w3.org/1999/xlink" x="0px" y="0px"
	 viewBox="0 0 512 512" style="enable-background:new 0 0 512 512;" xml:space="preserve">
<path style="fill:#BD9D7D;" d="M396.619,181.978h-281.24l123.562,318.345c6.043,15.569,28.072,15.569,34.115,0L396.619,181.978z"/>
<path style="fill:#FDB876;" d="M396.619,181.978h-281.24l123.562,318.345c6.043,15.569,28.072,15.569,34.115,0L396.619,181.978z"/>
<g style="opacity:0.1;">
	<path d="M206.593,359.23c-1.919,0-3.839-0.733-5.303-2.196c-2.929-2.93-2.929-7.678,0-10.607l65.04-65.04
		c2.929-2.928,7.678-2.928,10.606,0c2.929,2.93,2.929,7.678,0,10.607l-65.04,65.04C210.432,358.498,208.512,359.23,206.593,359.23z"
		/>
	<path d="M223.383,394.677c-1.919,0-3.839-0.732-5.303-2.196c-2.929-2.93-2.929-7.678,0-10.608l68.561-68.56
		c2.929-2.928,7.678-2.928,10.606,0c2.929,2.93,2.929,7.678,0,10.607l-68.561,68.561
		C227.222,393.944,225.302,394.677,223.383,394.677z"/>
	<path d="M280.284,394.677c-1.92,0-3.839-0.732-5.303-2.196l-71.359-71.359c-2.929-2.93-2.929-7.678,0-10.607s7.678-2.927,10.606,0
		l71.359,71.359c2.929,2.93,2.929,7.678,0,10.608C284.122,393.944,282.203,394.677,280.284,394.677z"/>
	<path d="M291.944,354.1c-1.919,0-3.839-0.732-5.303-2.196l-68.561-68.56c-2.929-2.93-2.929-7.678,0-10.607
		c2.929-2.928,7.678-2.928,10.606,0l68.561,68.56c2.929,2.93,2.929,7.678,0,10.607C295.783,353.367,293.863,354.1,291.944,354.1z"/>
</g>
<path style="fill:#BD9D7D;" d="M212.583,432.413l26.359,67.91c6.043,15.569,28.072,15.569,34.115,0l26.359-67.91H212.583z"/>
<path style="opacity:0.1;enable-background:new    ;" d="M359.31,181.978l-121.965,314.23l1.597,4.115
	c6.043,15.569,28.072,15.569,34.115,0l123.562-318.345H359.31z"/>
<path style="fill:#FFE584;" d="M412.711,154.865c-3.921,0.001-7.211-2.939-7.388-6.856C401.74,68.636,336.256,5.386,255.999,5.386
	c-80.209,0-145.663,63.175-149.318,142.48c-0.181,3.929-3.469,6.999-7.402,6.999l0,0c-11.714,0-21.21,9.496-21.21,21.21v0.637
	c0,11.714,9.496,21.21,21.21,21.21h50.895c9.148,0,16.565,7.416,16.565,16.565v28.004c0,13.681,11.091,24.772,24.773,24.772l0,0
	c13.681,0,24.772-11.091,24.772-24.773v-28.004c0-9.148,7.416-16.565,16.565-16.565h59.136c9.148,0,16.565,7.416,16.565,16.565l0,0
	c0,13.682,11.091,24.773,24.772,24.773l0,0c13.681,0,24.773-11.091,24.773-24.773l0,0c0-9.148,7.416-16.565,16.565-16.565h38.06
	c11.714,0,21.21-9.496,21.21-21.21v-0.637C433.928,164.358,424.428,154.861,412.711,154.865z"/>
<path style="opacity:0.1;enable-background:new    ;" d="M412.711,154.865c-3.921,0.001-7.211-2.939-7.388-6.856
	C401.74,68.636,336.256,5.386,255.999,5.386c-3.464,0-6.898,0.126-10.303,0.358c75.489,5.14,135.593,66.318,139.021,142.265
	c0.177,3.917,3.467,6.857,7.388,6.856c11.717-0.004,21.217,9.493,21.217,21.21v0.637c0,11.714-9.496,21.21-21.21,21.21h20.607
	c11.714,0,21.21-9.496,21.21-21.21v-0.637C433.928,164.358,424.428,154.86,412.711,154.865z"/>
<path style="fill:#E8618C;" d="M363.14,43.044C334.178,15.287,296.128,0,255.999,0c-40.103,0-78.136,15.269-107.091,42.996
	c-16.555,15.852-29.174,34.836-37.273,55.659c-2.241,5.762,0.26,12.357,5.779,15.144c15.828,7.992,36.715,3.367,46.676-13.886l0,0
	c16.92-16.92,44.353-16.92,61.273,0l0,0c13.616,23.584,47.657,23.584,61.273,0l0,0c13.616-23.584,47.657-23.584,61.273,0l0,0
	c9.961,17.253,30.847,21.878,46.675,13.887c5.519-2.786,8.021-9.381,5.78-15.143C392.272,77.855,379.672,58.888,363.14,43.044z"/>
<path style="opacity:0.1;enable-background:new    ;" d="M400.363,98.656c-8.091-20.801-20.691-39.768-37.223-55.612
	C334.792,15.875,297.734,0.663,258.544,0.03c31.747,4.587,61.254,18.903,84.77,41.44c16.532,15.845,29.132,34.812,37.223,55.613
	c2.241,5.762-0.261,12.357-5.78,15.143c-2.827,1.427-5.816,2.444-8.875,3.067c9.268,3.505,19.787,3.007,28.701-1.493
	C400.103,111.013,402.604,104.418,400.363,98.656z"/>
<g>
	<path style="fill:#4A5058;" d="M186.898,154.731c-4.142,0-7.5-3.357-7.5-7.5v-11.47c0-4.143,3.358-7.5,7.5-7.5s7.5,3.357,7.5,7.5
		v11.47C194.398,151.374,191.04,154.731,186.898,154.731z"/>
	<path style="fill:#4A5058;" d="M325.1,154.731c-4.142,0-7.5-3.357-7.5-7.5v-11.47c0-4.143,3.358-7.5,7.5-7.5
		c4.142,0,7.5,3.357,7.5,7.5v11.47C332.6,151.374,329.242,154.731,325.1,154.731z"/>
	<path style="fill:#4A5058;" d="M255.999,163.54c-9.15,0-17.851-3.963-23.873-10.872c-2.721-3.123-2.396-7.86,0.727-10.582
		c3.122-2.721,7.86-2.396,10.581,0.727c3.172,3.64,7.751,5.727,12.564,5.727c4.813,0,9.392-2.088,12.564-5.727
		c2.721-3.123,7.459-3.447,10.581-0.727c3.123,2.722,3.448,7.459,0.727,10.582C273.85,159.577,265.149,163.54,255.999,163.54z"/>
</g>
<g>
</g>
<g>
</g>
<g>
</g>
<g>
</g>
<g>
</g>
<g>
</g>
<g>
</g>
<g>
</g>
<g>
</g>
<g>
</g>
<g>
</g>
<g>
</g>
<g>
</g>
<g>
</g>
<g>
</g>
</svg>
